# xmcd
#
# Track frame offsets:
#	150
#	21648
#	40180
#	59229
#	77618
#	99653
#	117375
#	135502
#
# Disc length: 2151 seconds
#
# Revision: 1
# Processed by: cddbd v1.5.2PL0 Copyright (c) Steve Scherf et al.
# Submitted via: EZCDAudioConverter 8.0.2.1
#
DISCID=6f086508
DTITLE=Ngô Kiến Huy - Cho Vơi Nhẹ Lòng
DYEAR=2011
DGENRE=World Pop
TTITLE0=Cho Vơi Nhẹ Lòng
TTITLE1=Khóc trong đêm lạnh
TTITLE2=Chuyện chúng mình
TTITLE3=Ngày của hôm qua
TTITLE4=Niềm đau riêng anh
TTITLE5=Tình ta chỉ là mơ
TTITLE6=Dừng lại em nhé
TTITLE7=Ngủ ngoan tình yêu
EXTD=
EXTT0=
EXTT1=
EXTT2=
EXTT3=
EXTT4=
EXTT5=
EXTT6=
EXTT7=
PLAYORDER=
